inDegrees=yes
name=ik_S50_A13_T01
DataType=double
version=3
OpenSimVersion=4.3-2021-08-27-4bc7ad9
endheader
time	pelvis_tilt	pelvis_list	pelvis_rotation	pelvis_tx	pelvis_ty	pelvis_tz	hip_flexion_r	hip_adduction_r	hip_rotation_r	knee_angle_r	knee_angle_r_beta	ankle_angle_r	subtalar_angle_r	mtp_angle_r	hip_flexion_l	hip_adduction_l	hip_rotation_l	knee_angle_l	knee_angle_l_beta	ankle_angle_l	subtalar_angle_l	mtp_angle_l	lumbar_extension	lumbar_bending	lumbar_rotation	arm_flex_r	arm_add_r	arm_rot_r	elbow_flex_r	pro_sup_r	wrist_flex_r	wrist_dev_r	arm_flex_l	arm_add_l	arm_rot_l	elbow_flex_l	pro_sup_l	wrist_flex_l	wrist_dev_l
7.159999999999935	-0.2154783296383926	0.1242602168822186	27.22144129977774	0	0.9399999999999999	0	27.87959810132331	-9.089317346175436	-8.187829627271167	31.32872415655108	0.5467893869808997	0	0	0	27.87959810132331	-9.089317346175436	-8.187829627271167	31.32872415655108	0.5467893869808997	0	0	0	0.6379631445001567	1.095530883916896	9.069043341637228	73.84043674617044	-10.29588490015492	31.76971390957377	80.70033064779126	72.75814598627247	0	0	73.09123889794051	-6.669262166603469	26.24383338650954	19.33291935501233	119.5590133796673	0	0
7.179999999999935	-0.2281746699676607	0.1206256573031456	27.02891602038558	0	0.9399999999999999	0	27.88551328868303	-9.090295607714214	-8.189109370883104	31.33503301189978	0.5468994972787666	0	0	0	27.88551328868303	-9.090295607714214	-8.189109370883104	31.33503301189978	0.5468994972787666	0	0	0	0.6249270540226952	1.100506939937033	9.27681451659581	73.83274106178027	-10.29691279090484	31.93646682639911	80.54934195209746	73.16270065681726	0	0	73.3130642795709	-6.597310600789329	26.87429397295168	18.94860303771747	117.7534208835783	0	0
7.199999999999934	-0.2268112310513143	0.100281736867567	27.04635367312318	0	0.9399999999999999	0	27.88709333553394	-9.090566130938539	-8.189458743972384	31.3366699706333	0.5469280675983859	0	0	0	27.88709333553394	-9.090566130938539	-8.189458743972384	31.3366699706333	0.5469280675983859	0	0	0	0.6168614184609041	1.081710195940169	9.275171003940251	73.86160015485019	-10.30848751257377	32.0576939402289	80.52550100138332	73.23880395569313	0	0	73.33154099371257	-6.594614344698309	26.93295751654215	18.96214508126307	117.762030300446	0	0
7.219999999999934	-0.2690205440830581	0.0927720635724688	26.92640442770318	0	0.9399999999999999	0	27.89316729499991	-9.091579350708205	-8.19078008177703	31.34309938633665	0.5470402820713887	0	0	0	27.89316729499991	-9.091579350708205	-8.19078008177703	31.34309938633665	0.5470402820713887	0	0	0	0.5762111505607839	1.094089662161199	9.401521998423197	73.98317849572794	-10.3496864299086	32.22159149882719	80.48631556955669	73.55001441881652	0	0	73.6631599997625	-6.578567508995103	27.40091945449119	18.68080216110186	116.2230745050631	0	0
7.239999999999934	-0.2736933206992734	0.08899744003124116	26.92673970813223	0	0.9399999999999999	0	27.89765579758075	-9.09235846378834	-8.191781408769131	31.34769033723941	0.5471204092804394	0	0	0	27.89765579758075	-9.09235846378834	-8.191781408769131	31.34769033723941	0.5471204092804394	0	0	0	0.5702534806092144	1.092873799168041	9.414032618142352	74.03362988610183	-10.43531591715219	32.32797128699959	80.53445857712271	73.77715561220856	0	0	73.68482393486032	-6.565913220515565	27.396314534071	18.67035604006285	115.7111102818084	0	0
7.259999999999933	-0.2891606862954557	0.06051646265375688	26.81902826782627	0	0.9399999999999999	0	27.90391699605528	-9.093446619560646	-8.193179328837028	31.35408656687833	0.5472320445473522	0	0	0	27.90391699605528	-9.093446619560646	-8.193179328837028	31.35408656687833	0.5472320445473522	0	0	0	0.5434150757017412	1.075828383017103	9.542910524941322	74.13643720953675	-10.52602577196874	32.41959852700474	80.59169564317936	74.04652772128368	0	0	74.05221573902413	-6.510785571260843	28.40825904485292	18.44524047383333	114.1642011383965	0	0
7.279999999999933	-0.3112032348997978	0.05226281075750213	26.70802819281527	0	0.9399999999999999	0	27.9093833633665	-9.094382967682552	-8.194388782046644	31.3597384303749	0.5473306881742405	0	0	0	27.9093833633665	-9.094382967682552	-8.194388782046644	31.3597384303749	0.5473306881742405	0	0	0	0.519828012267035	1.079144540070686	9.643398308344077	74.22162399924864	-10.63488220059412	32.68978733591383	80.71678118615716	74.27367038764477	0	0	74.2238258653835	-6.515424985288776	28.92726182655644	18.39578941063802	113.1789108276906	0	0
7.299999999999932	-0.3099584100974979	0.05072551336004584	26.71484214367132	0	0.9399999999999999	0	27.91421097216402	-9.09522669063103	-8.195470710637704	31.36464052864881	0.5474162459293765	0	0	0	27.91421097216402	-9.09522669063103	-8.195470710637704	31.36464052864881	0.5474162459293765	0	0	0	0.5201371168248373	1.077019300017149	9.637399200322951	74.25704938183232	-10.70125055195177	32.983949478722	80.78512859573783	74.31930632467983	0	0	74.22398776561123	-6.523019911917168	28.93737996587436	18.42432504000198	112.8774930945675	0	0
7.319999999999932	-0.3302877211305036	0.0446489748891705	26.66258476306776	0	0.9399999999999999	0	27.91998653179607	-9.096211492849537	-8.196745168453743	31.3706293034827	0.5475207697683886	0	0	0	27.91998653179607	-9.096211492849537	-8.196745168453743	31.3706293034827	0.5475207697683886	0	0	0	0.4990232913062752	1.080946964793612	9.692342833413262	74.34525830993896	-10.79887173158845	33.34717621435316	80.94133417036339	74.63170501286571	0	0	74.4173321887526	-6.543947067463912	29.39304090197798	18.4023217988189	112.0745150285941	0	0
7.339999999999931	-0.3326816706336326	0.03488132008269489	26.59849982705317	0	0.9399999999999999	0	27.92625601086264	-9.097293899240967	-8.198139675098084	31.37705780032291	0.5476329682042043	0	0	0	27.92625601086264	-9.097293899240967	-8.198139675098084	31.37705780032291	0.5476329682042043	0	0	0	0.4922438554836402	1.073532452960009	9.742499250704967	74.43563014423492	-10.93870205499148	33.66304301013642	81.14499367762745	74.93248681020164	0	0	74.56975982711982	-6.605259346087962	29.7990241766424	18.36789482059029	111.6618424928699	0	0
7.359999999999931	-0.3386560356571541	0.03500516032722363	26.55946969242176	0	0.9399999999999999	0	27.93356352527977	-9.098558868797054	-8.199768110050217	31.38452666976794	0.5477633245674216	0	0	0	27.93356352527977	-9.098558868797054	-8.199768110050217	31.38452666976794	0.5477633245674216	0	0	0	0.4867938146064618	1.076398974828243	9.781038837917359	74.43220705700199	-10.962014557434	33.64058035882372	81.09630163965996	75.58452940256819	0	0	74.71472987600207	-6.65516857645565	30.11470229904456	18.25676469124812	111.0515027950846	0	0
7.379999999999931	-0.3393710153624885	0.04437688288385139	26.50049584871377	0	0.9399999999999999	0	27.93887753094402	-9.099481007630418	-8.200954257700415	31.38994380014591	0.547857871328527	0	0	0	27.93887753094402	-9.099481007630418	-8.200954257700415	31.38994380014591	0.547857871328527	0	0	0	0.4900498069271206	1.085156560533485	9.809762028421524	74.45481267544893	-11.12490077852694	33.96815065544309	81.21868454650549	75.89029218778715	0	0	74.76609666799074	-6.69138163910071	30.2475339715522	18.23668592872126	110.9204314125982	0	0
